<svg width="32" height="32" viewBox="0 0 32 32" fill="none" xmlns="http://www.w3.org/2000/svg">
<path d="M4 22.6667V25.3333H12V22.6667H4ZM4 6.66667V9.33333H17.3333V6.66667H4ZM28 25.3333V22.6667H16V25.3333H28ZM4 14.6667V17.3333H12V14.6667H4ZM28 17.3333V14.6667H17.3333V17.3333H28ZM24 9.33333H28V6.66667H24V9.33333Z" fill="#1E2024"/>
<path d="M22.6667 24C22.6667 26.2091 20.8758 28 18.6667 28C16.4575 28 14.6667 26.2091 14.6667 24C14.6667 21.7909 16.4575 20 18.6667 20C20.8758 20 22.6667 21.7909 22.6667 24Z" fill="#1E2024"/>
<path d="M21.3333 8C21.3333 10.2091 19.5425 12 17.3333 12C15.1242 12 13.3333 10.2091 13.3333 8C13.3333 5.79086 15.1242 4 17.3333 4C19.5425 4 21.3333 5.79086 21.3333 8Z" fill="#1E2024"/>
<path d="M14.6667 16C14.6667 18.2091 12.8758 20 10.6667 20C8.45753 20 6.66667 18.2091 6.66667 16C6.66667 13.7909 8.45753 12 10.6667 12C12.8758 12 14.6667 13.7909 14.6667 16Z" fill="#1E2024"/>
</svg>
