<svg width="32" height="32" viewBox="0 0 32 32" fill="none" xmlns="http://www.w3.org/2000/svg">
<path fill-rule="evenodd" clip-rule="evenodd" d="M18.666 4H13.3327C10.5037 4 7.7906 5.12381 5.79021 7.12419C3.78982 9.12458 2.66602 11.8377 2.66602 14.6667C2.66602 23.3333 11.9993 27.3333 18.666 30V25.3333C21.495 25.3333 24.2081 24.2095 26.2085 22.2091C28.2089 20.2088 29.3327 17.4956 29.3327 14.6667C29.3327 11.8377 28.2089 9.12458 26.2085 7.12419C24.2081 5.12381 21.495 4 18.666 4ZM11.9993 14.6667C11.9993 15.403 11.4024 16 10.666 16C9.92964 16 9.33268 15.403 9.33268 14.6667C9.33268 13.9303 9.92964 13.3333 10.666 13.3333C11.4024 13.3333 11.9993 13.9303 11.9993 14.6667ZM17.3327 14.6667C17.3327 15.403 16.7357 16 15.9993 16C15.263 16 14.666 15.403 14.666 14.6667C14.666 13.9303 15.263 13.3333 15.9993 13.3333C16.7357 13.3333 17.3327 13.9303 17.3327 14.6667ZM21.3327 16C22.0691 16 22.666 15.403 22.666 14.6667C22.666 13.9303 22.0691 13.3333 21.3327 13.3333C20.5963 13.3333 19.9993 13.9303 19.9993 14.6667C19.9993 15.403 20.5963 16 21.3327 16Z" fill="#1E2024"/>
</svg>
