<svg width="32" height="32" viewBox="0 0 32 32" fill="none" xmlns="http://www.w3.org/2000/svg">
<path d="M24.9571 3.54407C24.503 3.08992 23.9639 2.72966 23.3706 2.48387C22.7772 2.23808 22.1413 2.11157 21.4991 2.11157C20.8569 2.11157 20.2209 2.23808 19.6276 2.48387C19.0343 2.72966 18.4952 3.08992 18.0411 3.54407L4.79107 16.7941C4.68198 16.9038 4.59983 17.0373 4.55107 17.1841L2.05107 24.6841C1.9946 24.8539 1.98475 25.0358 2.02256 25.2108C2.06037 25.3858 2.14445 25.5474 2.26603 25.6787C2.3876 25.8101 2.54221 25.9065 2.71372 25.9577C2.88523 26.009 3.06735 26.0132 3.24107 25.9701L11.2411 23.9701C11.4173 23.9266 11.5784 23.8361 11.7071 23.7081L22.9991 12.4141L23.1711 12.5861C23.546 12.9611 23.7566 13.4697 23.7566 14.0001C23.7566 14.5304 23.546 15.039 23.1711 15.4141L20.2911 18.2941C20.1036 18.4818 19.9983 18.7364 19.9985 19.0018C19.9987 19.2671 20.1043 19.5216 20.2921 19.7091C20.4798 19.8966 20.7344 20.0018 20.9998 20.0016C21.2651 20.0014 21.5196 19.8958 21.7071 19.7081L24.5851 16.8281C25.335 16.078 25.7562 15.0607 25.7562 14.0001C25.7562 12.9394 25.335 11.9222 24.5851 11.1721L24.4131 11.0001L24.9571 10.4581C25.8737 9.54108 26.3886 8.29761 26.3886 7.00107C26.3886 5.70453 25.8737 4.46106 24.9571 3.54407ZM9.93307 30.0001C7.46307 30.0001 5.51707 28.8681 4.22307 27.7861L6.79107 27.1461C7.74668 27.6965 8.82831 27.9907 9.93107 28.0001C10.7431 28.0001 11.5791 27.6721 12.4711 27.0861C13.3651 26.5001 14.2271 25.7121 15.0991 24.8961L15.3251 24.6821C16.0951 23.9601 16.8931 23.2081 17.6571 22.6901C18.4731 22.1341 19.5571 21.6301 20.6911 22.0681C21.4431 22.3561 21.9311 22.8881 22.2731 23.5401C22.5951 24.1521 22.8171 24.9161 23.0331 25.7501C23.1331 26.1301 23.2991 26.4981 23.4931 26.7461C23.5554 26.8335 23.6326 26.9093 23.7211 26.9701C23.7711 27.0001 23.7931 27.0001 23.7991 27.0001C24.0431 27.0001 24.4611 26.8361 25.0591 26.4281C25.4291 26.1761 25.7471 25.9241 26.0631 25.6701C26.2591 25.5141 26.4571 25.3561 26.6671 25.2001C27.2251 24.7821 27.7071 24.5021 28.0611 24.3241C28.2422 24.2322 28.4277 24.1494 28.6171 24.0761L28.6571 24.0601L28.6711 24.0561L28.6771 24.0541H28.6791L28.9991 25.0001L28.6811 24.0521C28.9313 23.9707 29.2034 23.9911 29.4386 24.109C29.6738 24.227 29.8531 24.4328 29.9375 24.682C30.022 24.9311 30.0049 25.2036 29.8898 25.4402C29.7748 25.6768 29.5712 25.8586 29.3231 25.9461L29.3151 25.9501C29.1961 25.9981 29.0793 26.0515 28.9651 26.1101C28.7051 26.2381 28.3231 26.4581 27.8651 26.8021C27.7471 26.8881 27.5951 27.0101 27.4191 27.1501C27.0571 27.4361 26.6011 27.7981 26.1831 28.0821C25.5631 28.5061 24.7011 29.0021 23.7991 29.0021C22.9271 29.0021 22.2971 28.4721 21.9071 27.9681C21.5272 27.4547 21.2519 26.8716 21.0971 26.2521C20.8771 25.4061 20.7051 24.8521 20.5051 24.4721C20.3251 24.1361 20.1651 24.0081 19.9731 23.9321C19.8091 23.8721 19.4831 23.8661 18.7831 24.3441C18.1571 24.7681 17.4731 25.4101 16.6671 26.1681L16.4671 26.3541C15.6051 27.1641 14.6271 28.0641 13.5691 28.7581C12.5091 29.4541 11.2891 30.0001 9.93307 30.0001Z" fill="#1E2024"/>
</svg>
