<svg width="32" height="32" viewBox="0 0 32 32" fill="none" xmlns="http://www.w3.org/2000/svg">
<path fill-rule="evenodd" clip-rule="evenodd" d="M14.4334 4.14683V27.853H19.4874V4.14683H14.4334ZM18.4043 9.53459C18.4043 8.7411 17.7578 8.09785 16.9603 8.09785C16.1628 8.09785 15.5163 8.7411 15.5163 9.53459V11.6897C15.5163 12.4832 16.1628 13.1264 16.9603 13.1264C17.7578 13.1264 18.4043 12.4832 18.4043 11.6897V9.53459Z" fill="#1E2024"/>
<path fill-rule="evenodd" clip-rule="evenodd" d="M21.6534 4.14683V27.853H26.7074V4.14683H21.6534ZM25.6243 9.53459C25.6243 8.7411 24.9778 8.09785 24.1803 8.09785C23.3828 8.09785 22.7363 8.7411 22.7363 9.53459V11.6897C22.7363 12.4832 23.3828 13.1264 24.1803 13.1264C24.9778 13.1264 25.6243 12.4832 25.6243 11.6897V9.53459Z" fill="#1E2024"/>
<path d="M7.93542 4.27359L5.29426 27.2675L9.26473 27.7322L11.5769 4.72649L7.93542 4.27359Z" fill="#1E2024"/>
<path fill-rule="evenodd" clip-rule="evenodd" d="M14.4335 28.5713C14.0347 28.5713 13.7115 28.2497 13.7115 27.853V4.14683C13.7115 3.75009 14.0347 3.42847 14.4335 3.42847H19.4875C19.8862 3.42847 20.2094 3.75009 20.2094 4.14683V27.853C20.2094 28.2497 19.8862 28.5713 19.4875 28.5713H14.4335ZM21.6534 28.5713C21.2547 28.5713 20.9314 28.2497 20.9314 27.853V4.14683C20.9314 3.75009 21.2547 3.42847 21.6534 3.42847H26.7074C27.1062 3.42847 27.4294 3.75009 27.4294 4.14683V27.853C27.4294 28.2497 27.1062 28.5713 26.7074 28.5713H21.6534ZM5.20997 27.9809C4.81488 27.9347 4.53183 27.5791 4.577 27.1859L7.21815 4.19202C7.24004 4.00142 7.33764 3.82745 7.48921 3.70888C7.64077 3.5903 7.83371 3.53697 8.02502 3.56077L11.6665 4.01367C12.0553 4.06202 12.3344 4.41007 12.2954 4.79797L9.98319 27.8037C9.96392 27.9954 9.86804 28.1714 9.71708 28.2922C9.56613 28.4129 9.37276 28.4682 9.18042 28.4457L5.20997 27.9809ZM5.29426 27.2675L7.93542 4.27359L11.5769 4.72649L9.26473 27.7322L5.29426 27.2675ZM17.6824 9.53459C17.6824 9.13784 17.3591 8.81622 16.9604 8.81622C16.5616 8.81622 16.2384 9.13784 16.2384 9.53459V11.6897C16.2384 12.0864 16.5616 12.4081 16.9604 12.4081C17.3591 12.4081 17.6824 12.0864 17.6824 11.6897V9.53459ZM24.9023 9.53459C24.9023 9.13784 24.5791 8.81622 24.1803 8.81622C23.7816 8.81622 23.4583 9.13784 23.4583 9.53459V11.6897C23.4583 12.0864 23.7816 12.4081 24.1803 12.4081C24.5791 12.4081 24.9023 12.0864 24.9023 11.6897V9.53459ZM14.4334 27.853H19.4874V4.14683H14.4334V27.853ZM18.4043 9.53459C18.4043 8.7411 17.7578 8.09785 16.9603 8.09785C16.1628 8.09785 15.5163 8.7411 15.5163 9.53459V11.6897C15.5163 12.4832 16.1628 13.1264 16.9603 13.1264C17.7578 13.1264 18.4043 12.4832 18.4043 11.6897V9.53459ZM21.6534 27.853H26.7074V4.14683H21.6534V27.853ZM25.6243 9.53459C25.6243 8.7411 24.9778 8.09785 24.1803 8.09785C23.3828 8.09785 22.7363 8.7411 22.7363 9.53459V11.6897C22.7363 12.4832 23.3828 13.1264 24.1803 13.1264C24.9778 13.1264 25.6243 12.4832 25.6243 11.6897V9.53459Z" fill="#1E2024"/>
</svg>
