<svg width="32" height="32" viewBox="0 0 32 32" fill="none" xmlns="http://www.w3.org/2000/svg">
<path d="M14.6673 26.6665H17.334V21.0998L19.4673 23.2332L21.334 21.3332L16.0007 15.9998L10.6673 21.3332L12.5673 23.1998L14.6673 21.0998V26.6665ZM8.00065 29.3332C7.26732 29.3332 6.63932 29.0718 6.11665 28.5492C5.59399 28.0265 5.3331 27.399 5.33399 26.6665V5.33317C5.33399 4.59984 5.59532 3.97184 6.11799 3.44917C6.64065 2.92651 7.26821 2.66562 8.00065 2.66651H18.6673L26.6673 10.6665V26.6665C26.6673 27.3998 26.406 28.0278 25.8833 28.5505C25.3607 29.0732 24.7331 29.3341 24.0007 29.3332H8.00065ZM17.334 11.9998H24.0007L17.334 5.33317V11.9998Z" fill="#1E2024"/>
</svg>
