<svg width="20" height="20" viewBox="0 0 20 20" fill="none" xmlns="http://www.w3.org/2000/svg">
<path d="M15.7145 2.5H4.28597L5.30376 9.17932C5.65737 11.4999 7.65286 13.2144 10.0003 13.2144C12.3476 13.2144 14.3431 11.4999 14.6968 9.17932L15.7145 2.5Z" fill="white"/>
<path d="M9.16675 12.5001H10.8334V16.6668H9.16675V12.5001Z" fill="white"/>
<path d="M6.66675 15.0001H13.3334V16.6668H6.66675V15.0001Z" fill="white"/>
<path d="M16.6672 9.52386L17.5005 4.52386L17.7908 4.66903C18.6343 5.09078 19.1672 5.95291 19.1672 6.89598C19.1672 7.96767 18.4814 8.91912 17.4647 9.25801L16.6672 9.52386Z" fill="white"/>
<path d="M3.33301 9.52386L2.49967 4.52386L2.20934 4.66903C1.36583 5.09078 0.833008 5.95291 0.833008 6.89598C0.833008 7.96767 1.51878 8.91912 2.53547 9.25801L3.33301 9.52386Z" fill="white"/>
</svg>
