<svg width="20" height="20" viewBox="0 0 20 20" fill="none" xmlns="http://www.w3.org/2000/svg">
<path d="M11.6673 1.66699H5.00065C4.55862 1.66699 4.1347 1.84259 3.82214 2.15515C3.50958 2.46771 3.33398 2.89163 3.33398 3.33366V16.667C3.33398 17.592 4.07565 18.3337 5.00065 18.3337H15.0007C15.9257 18.3337 16.6673 17.592 16.6673 16.667V6.66699L11.6673 1.66699ZM15.0007 16.667H5.00065V3.33366H10.834V7.50033H15.0007V16.667ZM10.7507 12.0837L13.1673 15.8337H11.6673L10.0007 13.0003L8.33398 15.8337H6.83398L9.25065 12.0837L6.83398 8.33366H8.33398L10.0007 11.167L11.6673 8.33366H13.1673L10.7507 12.0837Z" fill="white"/>
</svg>
