<svg width="21" height="20" viewBox="0 0 21 20" fill="none" xmlns="http://www.w3.org/2000/svg">
<g clip-path="url(#clip0_796_17900)">
<path d="M13.4433 5.87398L15.2111 7.64174L19.0943 7.63585C19.2043 7.6354 19.3133 7.65674 19.415 7.69863C19.5167 7.74052 19.6091 7.80213 19.6869 7.87992C19.7647 7.95771 19.8263 8.05013 19.8682 8.15185C19.9101 8.25358 19.9315 8.36259 19.931 8.47259L19.9251 11.519C19.9245 11.7392 19.8367 11.9502 19.681 12.1058C19.5254 12.2615 19.3144 12.3492 19.0943 12.3499L16.3896 12.3558L11.6755 7.64174L10.497 8.82026C10.3407 8.97654 10.1288 9.06433 9.90776 9.06433C9.68675 9.06433 9.47479 8.97654 9.31851 8.82026C9.16223 8.66398 9.07443 8.45201 9.07443 8.231C9.07443 8.00999 9.16223 7.79802 9.31851 7.64174L11.0863 5.87398C11.3988 5.56142 11.8228 5.38582 12.2648 5.38582C12.7068 5.38582 13.1307 5.56142 13.4433 5.87398ZM6.96148 5.28472L4.60446 7.64174L1.90567 7.64175C1.68552 7.6424 1.47457 7.73015 1.31889 7.88582C1.16322 8.04149 1.07547 8.25244 1.07482 8.47259L1.06893 11.519C1.06847 11.6291 1.08981 11.7381 1.1317 11.8398C1.17359 11.9415 1.23521 12.0339 1.313 12.1117C1.39079 12.1895 1.48321 12.2511 1.58493 12.293C1.68665 12.3349 1.79566 12.3562 1.90567 12.3558L6.96148 12.3558L9.31851 14.7128C9.47479 14.8691 9.68675 14.9569 9.90776 14.9569C10.1288 14.9569 10.3407 14.8691 10.497 14.7128L11.0863 14.1236L11.6755 14.7128C11.8318 14.8691 12.0438 14.9569 12.2648 14.9569C12.4858 14.9569 12.6978 14.8691 12.854 14.7128L13.4433 14.1236L14.0326 14.7128C14.1888 14.8691 14.4008 14.9569 14.6218 14.9569C14.8428 14.9569 15.0548 14.8691 15.2111 14.7128L15.8003 14.1236L11.6755 9.99877L11.0863 10.588C10.7737 10.9006 10.3498 11.0762 9.90776 11.0762C9.46573 11.0762 9.04181 10.9006 8.72925 10.588L7.55074 9.40951C7.23818 9.09695 7.06258 8.67303 7.06258 8.231C7.06258 7.78897 7.23818 7.36505 7.55074 7.05249L9.31851 5.28472H6.96148Z" fill="white"/>
</g>
<defs>
<clipPath id="clip0_796_17900">
<rect width="20" height="20" fill="white" transform="translate(0.5)"/>
</clipPath>
</defs>
</svg>
