<svg width="16" height="16" viewBox="0 0 16 16" fill="none" xmlns="http://www.w3.org/2000/svg">
<path d="M8.00065 13.3335C9.41514 13.3335 10.7717 12.7716 11.7719 11.7714C12.7721 10.7712 13.334 9.41465 13.334 8.00016C13.334 6.58567 12.7721 5.22912 11.7719 4.22893C10.7717 3.22873 9.41514 2.66683 8.00065 2.66683C6.58616 2.66683 5.22961 3.22873 4.22941 4.22893C3.22922 5.22912 2.66732 6.58567 2.66732 8.00016C2.66732 9.41465 3.22922 10.7712 4.22941 11.7714C5.22961 12.7716 6.58616 13.3335 8.00065 13.3335ZM8.00065 1.3335C8.87613 1.3335 9.74304 1.50593 10.5519 1.84097C11.3607 2.176 12.0956 2.66706 12.7147 3.28612C13.3338 3.90517 13.8248 4.6401 14.1598 5.44894C14.4949 6.25778 14.6673 7.12468 14.6673 8.00016C14.6673 9.76827 13.9649 11.464 12.7147 12.7142C11.4645 13.9645 9.76876 14.6668 8.00065 14.6668C4.31398 14.6668 1.33398 11.6668 1.33398 8.00016C1.33398 6.23205 2.03636 4.53636 3.28661 3.28612C4.53685 2.03588 6.23254 1.3335 8.00065 1.3335ZM8.33398 4.66683V8.16683L11.334 9.94683L10.834 10.7668L7.33398 8.66683V4.66683H8.33398Z" fill="#E76014"/>
</svg>
