<svg width="16" height="16" viewBox="0 0 16 16" fill="none" xmlns="http://www.w3.org/2000/svg">
<path d="M7.99935 7.99967C8.36602 7.99967 8.68002 7.86901 8.94135 7.60767C9.20268 7.34634 9.33313 7.03256 9.33268 6.66634C9.33268 6.29967 9.20201 5.98567 8.94068 5.72434C8.67935 5.46301 8.36557 5.33256 7.99935 5.33301C7.63268 5.33301 7.31868 5.46368 7.05735 5.72501C6.79602 5.98634 6.66557 6.30012 6.66602 6.66634C6.66602 7.03301 6.79668 7.34701 7.05802 7.60834C7.31935 7.86967 7.63313 8.00012 7.99935 7.99967ZM7.99935 12.8997C9.3549 11.6552 10.3605 10.5246 11.016 9.50768C11.6716 8.49079 11.9993 7.58812 11.9993 6.79967C11.9993 5.58856 11.6131 4.59701 10.8407 3.82501C10.0682 3.05301 9.12113 2.66679 7.99935 2.66634C6.87713 2.66634 5.92979 3.05256 5.15735 3.82501C4.3849 4.59745 3.9989 5.58901 3.99935 6.79967C3.99935 7.58856 4.32713 8.49145 4.98268 9.50834C5.63824 10.5252 6.64379 11.6557 7.99935 12.8997ZM7.99935 14.6663C6.21046 13.1441 4.87446 11.7303 3.99135 10.425C3.10824 9.11967 2.66646 7.91123 2.66602 6.79967C2.66602 5.13301 3.20224 3.80523 4.27468 2.81634C5.34713 1.82745 6.58868 1.33301 7.99935 1.33301C9.41046 1.33301 10.6522 1.82745 11.7247 2.81634C12.7971 3.80523 13.3331 5.13301 13.3327 6.79967C13.3327 7.91079 12.8909 9.11923 12.0073 10.425C11.1238 11.7308 9.78779 13.1446 7.99935 14.6663Z" fill="white"/>
</svg>
