<svg width="14" height="12" viewBox="0 0 14 12" fill="none" xmlns="http://www.w3.org/2000/svg">
<path d="M7.50694 0.24009C7.29443 -0.0631267 6.70965 -0.115054 6.53994 0.29446L6.73305 0.638825C6.53468 0.680465 6.34914 0.767675 6.19154 0.89334C6.03395 1.01901 5.90877 1.17957 5.82623 1.36192C5.74369 1.54427 5.70612 1.74324 5.71659 1.9426C5.72706 2.14197 5.78528 2.33607 5.88648 2.50907H8.11462C8.21573 2.33636 8.27397 2.14258 8.28462 1.94352C8.29527 1.74446 8.25803 1.54573 8.17591 1.36352C8.0938 1.1813 7.96914 1.02074 7.81207 0.894895C7.65501 0.769052 7.46998 0.681486 7.27204 0.639319L7.50694 0.24009Z" fill="#1E2024"/>
<path d="M2.77047 6.53564L1.26796 6.55817C1.26796 6.55817 0.470661 6.15502 0.583138 5.17532C0.790175 5.17385 2.10257 5.27868 2.46141 5.30758L2.47684 5.30856C2.46738 5.19492 2.46041 5.0798 2.45743 4.96077L1.18036 4.1971C1.18036 4.1971 0.75136 2.68493 1.39039 1.96632C1.57553 2.12062 3.89076 4.31466 4.40537 4.81332C3.87384 5.28897 4.07042 6.4122 4.97322 6.4122C6.22839 6.4122 6.17115 4.60269 4.99263 4.60269C4.9135 4.60269 4.77166 4.62669 4.77166 4.62669L4.14408 3.14196H6.6793L6.44289 3.6465L7.00627 4.83439L7.56966 3.6465L7.3223 3.14196H9.89335L9.24486 4.62767C9.24486 4.62767 9.10153 4.60269 9.02091 4.60269C7.84089 4.60269 7.78565 6.4122 9.04032 6.4122C9.94362 6.4122 10.1397 5.29044 9.60817 4.81332C10.1203 4.31074 12.437 2.11671 12.6207 1.9624C13.2025 2.61194 12.6874 4.28135 12.6874 4.28135L11.5551 4.95489C11.5521 5.07441 11.5452 5.191 11.5352 5.30317L11.5511 5.3017L11.6016 5.29771C12.0189 5.26463 13.2311 5.16853 13.4294 5.16993C13.3971 5.92234 12.55 6.61842 12.55 6.61842L11.2391 6.54103C11.1834 6.66496 11.1221 6.78252 11.051 6.89518C11.5009 7.10435 12.4704 7.56334 12.6306 7.69364C12.2658 8.328 11.267 8.39118 11.267 8.39118L10.2203 7.71911C10.1103 7.78916 9.99089 7.85529 9.86448 7.91701C10.0715 8.18937 10.5667 8.83891 10.727 8.99076C10.1273 9.25479 9.3439 9.1578 9.3439 9.1578L8.91789 8.24521C8.75514 8.28488 8.58294 8.31967 8.40178 8.34906C8.42567 9.27977 9.20057 10.3481 9.60967 10.8537C9.29792 11.248 8.88612 11.5545 8.41572 11.7422L7.64779 9.76962L7.3233 9.85387C7.3233 9.85387 7.48753 11.3264 7.64928 11.9539C7.17996 12.0283 6.68875 12.0131 6.21445 11.9049C6.42995 11.151 6.57329 9.82154 6.57329 9.82154L6.22291 9.76962L5.38382 11.61C4.95836 11.3994 4.58209 11.104 4.27896 10.7425C4.72439 10.1978 5.54805 9.13233 5.59782 8.34906C5.42114 8.31967 5.25293 8.28587 5.09317 8.24668L4.55716 9.19306C4.55716 9.19306 3.68323 9.37823 3.22984 9.01721C3.40801 8.81098 3.92709 8.18202 4.14408 7.91701C4.01866 7.85676 3.90171 7.79063 3.79172 7.72058L2.7625 8.37306C2.7625 8.37306 1.74922 8.47838 1.38342 7.69658C1.54218 7.56579 2.51317 7.1068 2.96258 6.89764C2.89041 6.78399 2.82621 6.66349 2.77047 6.53564Z" fill="#1E2024"/>
<path d="M6.96496 3.14147L7.0008 3.14196L7.03613 3.14147H6.96496Z" fill="#1E2024"/>
</svg>
