<svg width="24" height="24" viewBox="0 0 24 24" fill="none" xmlns="http://www.w3.org/2000/svg">
<path d="M20.0001 12.2473L14.6291 5L7.20446 10.6892L12.7846 17.6945L20.0001 12.2473Z" fill="white"/>
<path fill-rule="evenodd" clip-rule="evenodd" d="M14.7683 4.00973C15.0337 4.04702 15.273 4.18928 15.4326 4.40459L20.8035 11.6519C21.1303 12.0928 21.0406 12.7147 20.6026 13.0454L14.0395 18H19.6736C20.2258 18 20.6736 18.4477 20.6736 19C20.6736 19.5523 20.2258 20 19.6736 20L6.77137 19.9996C6.45464 19.9995 6.15665 19.8495 5.96806 19.595L2.19664 14.5062C1.87152 14.0675 1.95841 13.4491 2.39184 13.117L14.0209 4.20624C14.2336 4.04324 14.5029 3.97244 14.7683 4.00973ZM7.03371 12.0798L4.38942 14.106L7.27508 17.9996L10.826 18L11.3861 17.5438L7.03371 12.0798ZM12.9597 16.3093L18.6065 12.0464L14.4308 6.41183L8.62153 10.8632L12.9597 16.3093Z" fill="white"/>
</svg>
