<svg width="20" height="20" viewBox="0 0 20 20" fill="none" xmlns="http://www.w3.org/2000/svg">
<path d="M2.5 14.1667V15.8333H7.5V14.1667H2.5ZM2.5 4.16667V5.83333H10.8333V4.16667H2.5ZM17.5 15.8333V14.1667H10V15.8333H17.5ZM2.5 9.16667V10.8333H7.5V9.16667H2.5ZM17.5 10.8333V9.16667H10.8333V10.8333H17.5ZM15 5.83333H17.5V4.16667H15V5.83333Z" fill="white"/>
<path d="M14.1667 15C14.1667 16.3807 13.0474 17.5 11.6667 17.5C10.286 17.5 9.16667 16.3807 9.16667 15C9.16667 13.6193 10.286 12.5 11.6667 12.5C13.0474 12.5 14.1667 13.6193 14.1667 15Z" fill="white"/>
<path d="M13.3333 5C13.3333 6.38071 12.214 7.5 10.8333 7.5C9.45262 7.5 8.33333 6.38071 8.33333 5C8.33333 3.61929 9.45262 2.5 10.8333 2.5C12.214 2.5 13.3333 3.61929 13.3333 5Z" fill="white"/>
<path d="M9.16667 10C9.16667 11.3807 8.04738 12.5 6.66667 12.5C5.28595 12.5 4.16667 11.3807 4.16667 10C4.16667 8.61929 5.28595 7.5 6.66667 7.5C8.04738 7.5 9.16667 8.61929 9.16667 10Z" fill="white"/>
</svg>
