<svg width="20" height="20" viewBox="0 0 20 20" fill="none" xmlns="http://www.w3.org/2000/svg">
<g clip-path="url(#clip0_765_8638)">
<path d="M12.9433 5.8741L14.7111 7.64187L18.5943 7.63597C18.7043 7.63552 18.8133 7.65686 18.915 7.69875C19.0167 7.74064 19.1091 7.80226 19.1869 7.88004C19.2647 7.95783 19.3263 8.05025 19.3682 8.15198C19.4101 8.2537 19.4315 8.36271 19.431 8.47272L19.4251 11.5192C19.4245 11.7393 19.3367 11.9503 19.181 12.1059C19.0254 12.2616 18.8144 12.3494 18.5943 12.35L15.8896 12.3559L11.1755 7.64187L9.99702 8.82038C9.84074 8.97666 9.62878 9.06445 9.40776 9.06445C9.18675 9.06445 8.97479 8.97666 8.81851 8.82038C8.66223 8.6641 8.57443 8.45214 8.57443 8.23112C8.57443 8.01011 8.66223 7.79815 8.81851 7.64187L10.5863 5.8741C10.8988 5.56154 11.3228 5.38594 11.7648 5.38594C12.2068 5.38594 12.6307 5.56154 12.9433 5.8741ZM6.46148 5.28484L4.10446 7.64187L1.40567 7.64187C1.18552 7.64252 0.974565 7.73027 0.818892 7.88594C0.663219 8.04161 0.575473 8.25256 0.574818 8.47272L0.568926 11.5192C0.568475 11.6292 0.58981 11.7382 0.6317 11.8399C0.673591 11.9416 0.735208 12.0341 0.812997 12.1118C0.890786 12.1896 0.983206 12.2512 1.08493 12.2931C1.18665 12.335 1.29566 12.3564 1.40567 12.3559L6.46148 12.3559L8.81851 14.7129C8.97479 14.8692 9.18675 14.957 9.40776 14.957C9.62877 14.957 9.84074 14.8692 9.99702 14.7129L10.5863 14.1237L11.1755 14.7129C11.3318 14.8692 11.5438 14.957 11.7648 14.957C11.9858 14.957 12.1978 14.8692 12.354 14.7129L12.9433 14.1237L13.5326 14.7129C13.6888 14.8692 13.9008 14.957 14.1218 14.957C14.3428 14.957 14.5548 14.8692 14.7111 14.7129L15.3003 14.1237L11.1755 9.99889L10.5863 10.5881C10.2737 10.9007 9.84979 11.0763 9.40776 11.0763C8.96573 11.0763 8.54181 10.9007 8.22925 10.5881L7.05074 9.40963C6.73818 9.09707 6.56258 8.67315 6.56258 8.23112C6.56258 7.78909 6.73818 7.36517 7.05074 7.05261L8.81851 5.28484L6.46148 5.28484Z" fill="#1E2024"/>
</g>
<defs>
<clipPath id="clip0_765_8638">
<rect width="20" height="20" fill="white"/>
</clipPath>
</defs>
</svg>
