<svg width="16" height="16" viewBox="0 0 16 16" fill="none" xmlns="http://www.w3.org/2000/svg">
<path d="M8.00065 13.333C9.41514 13.333 10.7717 12.7711 11.7719 11.7709C12.7721 10.7707 13.334 9.41416 13.334 7.99967C13.334 6.58519 12.7721 5.22863 11.7719 4.22844C10.7717 3.22824 9.41514 2.66634 8.00065 2.66634C6.58616 2.66634 5.22961 3.22824 4.22941 4.22844C3.22922 5.22863 2.66732 6.58519 2.66732 7.99967C2.66732 9.41416 3.22922 10.7707 4.22941 11.7709C5.22961 12.7711 6.58616 13.333 8.00065 13.333ZM8.00065 1.33301C8.87613 1.33301 9.74304 1.50545 10.5519 1.84048C11.3607 2.17551 12.0956 2.66657 12.7147 3.28563C13.3338 3.90469 13.8248 4.63961 14.1598 5.44845C14.4949 6.25729 14.6673 7.1242 14.6673 7.99967C14.6673 9.76779 13.9649 11.4635 12.7147 12.7137C11.4645 13.964 9.76876 14.6663 8.00065 14.6663C4.31398 14.6663 1.33398 11.6663 1.33398 7.99967C1.33398 6.23156 2.03636 4.53587 3.28661 3.28563C4.53685 2.03539 6.23254 1.33301 8.00065 1.33301ZM8.33398 4.66634V8.16634L11.334 9.94634L10.834 10.7663L7.33398 8.66634V4.66634H8.33398Z" fill="white"/>
</svg>
