<svg width="20" height="20" viewBox="0 0 20 20" fill="none" xmlns="http://www.w3.org/2000/svg">
<path d="M15.7136 2.5H4.28499L5.30278 9.17932C5.6564 11.4999 7.65189 13.2144 9.99928 13.2144C12.3467 13.2144 14.3422 11.4999 14.6958 9.17932L15.7136 2.5Z" fill="#1E2024"/>
<path d="M9.16577 12.5001H10.8324V16.6668H9.16577V12.5001Z" fill="#1E2024"/>
<path d="M6.66577 15.0001H13.3324V16.6668H6.66577V15.0001Z" fill="#1E2024"/>
<path d="M16.6662 9.52386L17.4995 4.52386L17.7898 4.66903C18.6334 5.09078 19.1662 5.95291 19.1662 6.89598C19.1662 7.96767 18.4804 8.91912 17.4637 9.25801L16.6662 9.52386Z" fill="#1E2024"/>
<path d="M3.33203 9.52386L2.4987 4.52386L2.20836 4.66903C1.36486 5.09078 0.832031 5.95291 0.832031 6.89598C0.832031 7.96767 1.5178 8.91912 2.53449 9.25801L3.33203 9.52386Z" fill="#1E2024"/>
</svg>
