<svg width="20" height="20" viewBox="0 0 20 20" fill="none" xmlns="http://www.w3.org/2000/svg">
<path d="M1.66732 4.39134L2.73398 3.33301L16.6673 17.2663L15.609 18.333L13.0423 15.7663C12.084 16.083 11.0673 16.2497 10.0007 16.2497C5.83398 16.2497 2.27565 13.658 0.833984 9.99967C1.40898 8.53301 2.32565 7.24134 3.49232 6.21634L1.66732 4.39134ZM10.0007 7.49967C10.6637 7.49967 11.2996 7.76307 11.7684 8.23191C12.2373 8.70075 12.5007 9.33663 12.5007 9.99967C12.5011 10.2835 12.4532 10.5653 12.359 10.833L9.16732 7.64134C9.43504 7.54716 9.71684 7.49925 10.0007 7.49967ZM10.0007 3.74967C14.1673 3.74967 17.7256 6.34134 19.1673 9.99967C18.4872 11.7273 17.3314 13.2269 15.834 14.3247L14.6507 13.133C15.8031 12.3358 16.7325 11.2572 17.3506 9.99967C16.6769 8.62462 15.631 7.46615 14.3317 6.65593C13.0324 5.84571 11.5319 5.41624 10.0007 5.41634C9.09232 5.41634 8.20065 5.56634 7.36732 5.83301L6.08398 4.55801C7.28398 4.04134 8.60898 3.74967 10.0007 3.74967ZM2.65065 9.99967C3.32435 11.3747 4.37029 12.5332 5.66959 13.3434C6.96889 14.1536 8.46943 14.5831 10.0007 14.583C10.5757 14.583 11.1423 14.5247 11.6673 14.408L9.76732 12.4997C9.18745 12.4375 8.64634 12.1787 8.23396 11.7664C7.82159 11.354 7.5628 10.8129 7.50065 10.233L4.66732 7.39134C3.84232 8.09967 3.15065 8.98301 2.65065 9.99967Z" fill="white"/>
</svg>
