<svg width="20" height="20" viewBox="0 0 20 20" fill="none" xmlns="http://www.w3.org/2000/svg">
<path fill-rule="evenodd" clip-rule="evenodd" d="M8.87927 2.0547C9.33778 1.12565 10.6626 1.12565 11.1211 2.0547L13.0027 5.86719L17.21 6.47855C18.2353 6.62753 18.6447 7.88749 17.9028 8.61066L14.8583 11.5783L15.577 15.7686C15.7522 16.7897 14.6804 17.5684 13.7633 17.0863L10.0002 15.1079L6.23704 17.0863C5.32001 17.5684 4.24822 16.7897 4.42335 15.7686L5.14205 11.5783L2.0976 8.61066C1.3557 7.88749 1.76509 6.62753 2.79037 6.47855L6.99769 5.86719L8.87927 2.0547ZM10.0002 3.54939L8.39531 6.80123C8.21323 7.17016 7.86127 7.42587 7.45414 7.48503L3.86552 8.00649L6.46227 10.5377C6.75687 10.8249 6.89131 11.2386 6.82176 11.6441L6.20875 15.2182L9.41851 13.5308C9.78267 13.3393 10.2177 13.3393 10.5819 13.5308L13.7916 15.2182L13.1786 11.6441C13.1091 11.2386 13.2435 10.8249 13.5381 10.5377L16.1349 8.00649L12.5462 7.48503C12.1391 7.42587 11.7871 7.17016 11.6051 6.80123L10.0002 3.54939Z" fill="white"/>
</svg>
