<svg width="28" height="28" viewBox="0 0 28 28" fill="none" xmlns="http://www.w3.org/2000/svg">
<path d="M14.0003 22.1665H16.3337V6.99985L23.7933 10.1965C24.0033 10.2865 24.1823 10.4362 24.308 10.6271C24.4336 10.8179 24.5005 11.0414 24.5003 11.2699V22.1665H26.8337V24.4999H1.16699V22.1665H3.50033V6.59152C3.5003 6.36579 3.56575 6.1449 3.68876 5.95563C3.81176 5.76636 3.98704 5.61683 4.19333 5.52519L13.1802 1.53169C13.269 1.49223 13.3662 1.47559 13.4631 1.48327C13.56 1.49096 13.6534 1.52273 13.7349 1.5757C13.8164 1.62867 13.8834 1.70116 13.9297 1.78659C13.9761 1.87201 14.0003 1.96766 14.0003 2.06485V22.1665Z" fill="#FFD954"/>
</svg>
