<svg width="28" height="28" viewBox="0 0 28 28" fill="none" xmlns="http://www.w3.org/2000/svg">
<path d="M22 4H6L7.4249 13.3509C7.91997 16.5998 10.7137 19 14 19C17.2863 19 20.08 16.5998 20.5751 13.3509L22 4Z" fill="#FFD954"/>
<rect x="13" y="20" width="2" height="3" fill="#FFD954"/>
<rect x="9" y="24" width="9.33333" height="2.33333" fill="#FFD954"/>
<path d="M22.167 13.833L23.3337 6.83301L23.7401 7.03624C24.921 7.6267 25.667 8.83368 25.667 10.154C25.667 11.6543 24.7069 12.9864 23.2835 13.4608L22.167 13.833Z" fill="#FFD954"/>
<path d="M5.83301 13.833L4.66634 6.83301L4.25987 7.03624C3.07896 7.6267 2.33301 8.83368 2.33301 10.154C2.33301 11.6543 3.29308 12.9864 4.71645 13.4608L5.83301 13.833Z" fill="#FFD954"/>
</svg>
