<svg width="28" height="28" viewBox="0 0 28 28" fill="none" xmlns="http://www.w3.org/2000/svg">
<path d="M14.0003 14.0003C12.717 14.0003 11.6184 13.5434 10.7045 12.6295C9.7906 11.7156 9.33366 10.617 9.33366 9.33366C9.33366 8.05033 9.7906 6.95171 10.7045 6.03783C11.6184 5.12394 12.717 4.66699 14.0003 4.66699C15.2837 4.66699 16.3823 5.12394 17.2962 6.03783C18.21 6.95171 18.667 8.05033 18.667 9.33366C18.667 10.617 18.21 11.7156 17.2962 12.6295C16.3823 13.5434 15.2837 14.0003 14.0003 14.0003ZM4.66699 23.3337V20.067C4.66699 19.4059 4.83733 18.798 5.17799 18.2435C5.51866 17.6889 5.97055 17.2662 6.53366 16.9753C7.73921 16.3725 8.96421 15.9203 10.2087 15.6185C11.4531 15.3167 12.717 15.1662 14.0003 15.167C15.2837 15.167 16.5475 15.3179 17.792 15.6197C19.0364 15.9214 20.2614 16.3733 21.467 16.9753C22.0309 17.267 22.4832 17.6901 22.8238 18.2447C23.1645 18.7992 23.3344 19.4067 23.3337 20.067V23.3337H20C20 23.3337 11.6705 23.3337 4.66699 23.3337Z" fill="#FFD954"/>
</svg>
