<svg width="281" height="281" viewBox="0 0 281 281" fill="none" xmlns="http://www.w3.org/2000/svg">
<circle cx="140.008" cy="140.007" r="99" transform="rotate(45 140.008 140.007)" fill="#3B3D41"/>
<path d="M110.701 234.57C123.462 238.525 136.893 239.856 150.183 238.483C163.472 237.11 176.347 233.061 188.03 226.58C199.714 220.099 209.965 211.32 218.165 200.772C226.366 190.224 232.347 178.126 235.747 165.205L140.008 140.007L110.701 234.57Z" fill="white"/>
<path d="M256.98 171.349C261.787 153.407 262.403 134.599 258.779 116.381C255.155 98.1632 247.389 81.023 236.081 66.2865C224.774 51.55 210.228 39.6122 193.568 31.3967C176.909 23.1812 158.583 18.9082 140.008 18.9082L140.008 140.006L256.98 171.349Z" fill="#FFD954"/>
<path opacity="0.5" d="M183.48 103.132C182.832 103.132 182.284 103.024 181.836 102.808C181.396 102.592 181.06 102.296 180.828 101.92C180.596 101.536 180.48 101.096 180.48 100.6H181.92C181.92 101 182.044 101.312 182.292 101.536C182.548 101.752 182.944 101.86 183.48 101.86C184 101.86 184.388 101.752 184.644 101.536C184.908 101.312 185.04 101 185.04 100.6C185.04 100.192 184.92 99.872 184.68 99.64C184.44 99.4 184.04 99.28 183.48 99.28H182.64V98.08H183.48C183.96 98.08 184.32 97.98 184.56 97.78C184.8 97.572 184.92 97.276 184.92 96.892C184.92 96.508 184.804 96.22 184.572 96.028C184.348 95.836 183.984 95.74 183.48 95.74C182.984 95.74 182.616 95.84 182.376 96.04C182.144 96.24 182.028 96.52 182.028 96.88H180.588C180.588 96.392 180.696 95.968 180.912 95.608C181.136 95.248 181.464 94.968 181.896 94.768C182.328 94.568 182.856 94.468 183.48 94.468C184.112 94.468 184.64 94.572 185.064 94.78C185.488 94.98 185.808 95.252 186.024 95.596C186.248 95.932 186.36 96.308 186.36 96.724C186.36 97.204 186.232 97.608 185.976 97.936C185.72 98.256 185.368 98.484 184.92 98.62C185.408 98.764 185.788 99.008 186.06 99.352C186.34 99.688 186.48 100.144 186.48 100.72C186.48 101.168 186.364 101.576 186.132 101.944C185.908 102.312 185.572 102.604 185.124 102.82C184.684 103.028 184.136 103.132 183.48 103.132ZM190.977 103.132C189.985 103.132 189.205 102.82 188.637 102.196C188.077 101.572 187.797 100.58 187.797 99.22V98.98C187.797 97.892 187.941 97.02 188.229 96.364C188.517 95.7 188.909 95.22 189.405 94.924C189.909 94.62 190.473 94.468 191.097 94.468C191.577 94.468 191.997 94.54 192.357 94.684C192.725 94.82 193.025 95.036 193.257 95.332C193.497 95.62 193.657 95.996 193.737 96.46H192.297C192.209 96.204 192.065 96.02 191.865 95.908C191.665 95.796 191.409 95.74 191.097 95.74C190.737 95.74 190.409 95.82 190.113 95.98C189.825 96.14 189.593 96.42 189.417 96.82C189.249 97.212 189.157 97.772 189.141 98.5C189.349 98.148 189.649 97.9 190.041 97.756C190.441 97.604 190.833 97.528 191.217 97.528C191.785 97.528 192.269 97.632 192.669 97.84C193.069 98.048 193.377 98.352 193.593 98.752C193.809 99.144 193.917 99.628 193.917 100.204V100.324C193.917 100.876 193.789 101.364 193.533 101.788C193.277 102.212 192.925 102.544 192.477 102.784C192.037 103.016 191.537 103.132 190.977 103.132ZM190.881 101.86C191.361 101.86 191.745 101.72 192.033 101.44C192.329 101.152 192.477 100.78 192.477 100.324V100.204C192.477 99.756 192.329 99.392 192.033 99.112C191.745 98.824 191.361 98.68 190.881 98.68C190.401 98.68 190.013 98.824 189.717 99.112C189.429 99.392 189.285 99.756 189.285 100.204V100.324C189.285 100.78 189.429 101.152 189.717 101.44C190.013 101.72 190.401 101.86 190.881 101.86ZM196.8 98.692C196.208 98.692 195.728 98.508 195.36 98.14C195 97.772 194.82 97.292 194.82 96.7V96.58C194.82 96.18 194.9 95.832 195.06 95.536C195.228 95.24 195.46 95.008 195.756 94.84C196.06 94.672 196.408 94.588 196.8 94.588C197.192 94.588 197.536 94.672 197.832 94.84C198.128 95.008 198.36 95.24 198.528 95.536C198.696 95.832 198.78 96.18 198.78 96.58V96.7C198.78 97.292 198.596 97.772 198.228 98.14C197.868 98.508 197.392 98.692 196.8 98.692ZM196.8 97.612C197.016 97.612 197.188 97.54 197.316 97.396C197.444 97.252 197.508 97.016 197.508 96.688V96.58C197.508 96.26 197.444 96.028 197.316 95.884C197.188 95.74 197.016 95.668 196.8 95.668C196.584 95.668 196.412 95.74 196.284 95.884C196.156 96.028 196.092 96.26 196.092 96.58V96.688C196.092 97.016 196.156 97.252 196.284 97.396C196.412 97.54 196.584 97.612 196.8 97.612ZM195.96 103.12L201.72 94.72H203.16L197.4 103.12H195.96ZM202.32 103.252C201.728 103.252 201.248 103.068 200.88 102.7C200.52 102.332 200.34 101.852 200.34 101.26V101.14C200.34 100.74 200.42 100.392 200.58 100.096C200.748 99.8 200.98 99.568 201.276 99.4C201.58 99.232 201.928 99.148 202.32 99.148C202.712 99.148 203.056 99.232 203.352 99.4C203.648 99.568 203.88 99.8 204.048 100.096C204.216 100.392 204.3 100.74 204.3 101.14V101.26C204.3 101.852 204.116 102.332 203.748 102.7C203.388 103.068 202.912 103.252 202.32 103.252ZM202.32 102.172C202.536 102.172 202.708 102.1 202.836 101.956C202.964 101.812 203.028 101.576 203.028 101.248V101.14C203.028 100.82 202.964 100.588 202.836 100.444C202.708 100.3 202.536 100.228 202.32 100.228C202.104 100.228 201.932 100.3 201.804 100.444C201.676 100.588 201.612 100.82 201.612 101.14V101.248C201.612 101.576 201.676 101.812 201.804 101.956C201.932 102.1 202.104 102.172 202.32 102.172Z" fill="#1E2024"/>
<path opacity="0.5" d="M153.42 193V191.872L156.552 189.16C156.896 188.856 157.172 188.596 157.38 188.38C157.588 188.156 157.74 187.948 157.836 187.756C157.932 187.556 157.98 187.344 157.98 187.12C157.98 186.712 157.856 186.38 157.608 186.124C157.368 185.868 157.032 185.74 156.6 185.74C156.088 185.74 155.688 185.88 155.4 186.16C155.12 186.432 154.98 186.852 154.98 187.42H153.54C153.54 186.828 153.664 186.312 153.912 185.872C154.168 185.424 154.524 185.08 154.98 184.84C155.436 184.592 155.976 184.468 156.6 184.468C157.208 184.468 157.72 184.584 158.136 184.816C158.56 185.04 158.88 185.352 159.096 185.752C159.312 186.152 159.42 186.608 159.42 187.12C159.42 187.496 159.34 187.852 159.18 188.188C159.02 188.516 158.8 188.832 158.52 189.136C158.248 189.432 157.928 189.724 157.56 190.012L155.424 191.752H159.54V193H153.42ZM163.858 193.132C163.418 193.132 163.006 193.064 162.622 192.928C162.246 192.784 161.914 192.552 161.626 192.232C161.346 191.904 161.126 191.46 160.966 190.9C160.814 190.34 160.738 189.64 160.738 188.8V188.56C160.738 187.784 160.814 187.136 160.966 186.616C161.126 186.088 161.346 185.668 161.626 185.356C161.914 185.036 162.246 184.808 162.622 184.672C163.006 184.536 163.418 184.468 163.858 184.468C164.298 184.468 164.706 184.536 165.082 184.672C165.466 184.808 165.798 185.036 166.078 185.356C166.366 185.668 166.586 186.088 166.738 186.616C166.898 187.136 166.978 187.784 166.978 188.56V188.8C166.978 189.64 166.898 190.34 166.738 190.9C166.586 191.46 166.366 191.904 166.078 192.232C165.798 192.552 165.466 192.784 165.082 192.928C164.706 193.064 164.298 193.132 163.858 193.132ZM163.858 191.884C164.082 191.884 164.294 191.84 164.494 191.752C164.694 191.664 164.87 191.508 165.022 191.284C165.182 191.052 165.306 190.736 165.394 190.336C165.49 189.936 165.538 189.424 165.538 188.8V188.56C165.538 187.808 165.458 187.228 165.298 186.82C165.146 186.404 164.942 186.116 164.686 185.956C164.43 185.796 164.154 185.716 163.858 185.716C163.562 185.716 163.286 185.796 163.03 185.956C162.774 186.116 162.566 186.404 162.406 186.82C162.254 187.228 162.178 187.808 162.178 188.56V188.8C162.178 189.424 162.222 189.936 162.31 190.336C162.406 190.736 162.53 191.052 162.682 191.284C162.842 191.508 163.022 191.664 163.222 191.752C163.422 191.84 163.634 191.884 163.858 191.884ZM169.917 188.692C169.325 188.692 168.845 188.508 168.477 188.14C168.117 187.772 167.937 187.292 167.937 186.7V186.58C167.937 186.18 168.017 185.832 168.177 185.536C168.345 185.24 168.577 185.008 168.873 184.84C169.177 184.672 169.525 184.588 169.917 184.588C170.309 184.588 170.653 184.672 170.949 184.84C171.245 185.008 171.477 185.24 171.645 185.536C171.813 185.832 171.897 186.18 171.897 186.58V186.7C171.897 187.292 171.713 187.772 171.345 188.14C170.985 188.508 170.509 188.692 169.917 188.692ZM169.917 187.612C170.133 187.612 170.305 187.54 170.433 187.396C170.561 187.252 170.625 187.016 170.625 186.688V186.58C170.625 186.26 170.561 186.028 170.433 185.884C170.305 185.74 170.133 185.668 169.917 185.668C169.701 185.668 169.529 185.74 169.401 185.884C169.273 186.028 169.209 186.26 169.209 186.58V186.688C169.209 187.016 169.273 187.252 169.401 187.396C169.529 187.54 169.701 187.612 169.917 187.612ZM169.077 193.12L174.837 184.72H176.277L170.517 193.12H169.077ZM175.437 193.252C174.845 193.252 174.365 193.068 173.997 192.7C173.637 192.332 173.457 191.852 173.457 191.26V191.14C173.457 190.74 173.537 190.392 173.697 190.096C173.865 189.8 174.097 189.568 174.393 189.4C174.697 189.232 175.045 189.148 175.437 189.148C175.829 189.148 176.173 189.232 176.469 189.4C176.765 189.568 176.997 189.8 177.165 190.096C177.333 190.392 177.417 190.74 177.417 191.14V191.26C177.417 191.852 177.233 192.332 176.865 192.7C176.505 193.068 176.029 193.252 175.437 193.252ZM175.437 192.172C175.653 192.172 175.825 192.1 175.953 191.956C176.081 191.812 176.145 191.576 176.145 191.248V191.14C176.145 190.82 176.081 190.588 175.953 190.444C175.825 190.3 175.653 190.228 175.437 190.228C175.221 190.228 175.049 190.3 174.921 190.444C174.793 190.588 174.729 190.82 174.729 191.14V191.248C174.729 191.576 174.793 191.812 174.921 191.956C175.049 192.1 175.221 192.172 175.437 192.172Z" fill="#1E2024"/>
<path opacity="0.3" d="M85.38 137V135.104H81.24V134.036L85.32 128.6H86.82V133.856H87.84V135.104H86.82V137H85.38ZM82.68 133.856H85.38V130.256L82.68 133.856ZM92.7628 137V135.104H88.6228V134.036L92.7028 128.6H94.2028V133.856H95.2228V135.104H94.2028V137H92.7628ZM90.0628 133.856H92.7628V130.256L90.0628 133.856ZM98.0456 132.692C97.4536 132.692 96.9736 132.508 96.6056 132.14C96.2456 131.772 96.0656 131.292 96.0656 130.7V130.58C96.0656 130.18 96.1456 129.832 96.3056 129.536C96.4736 129.24 96.7056 129.008 97.0016 128.84C97.3056 128.672 97.6536 128.588 98.0456 128.588C98.4376 128.588 98.7816 128.672 99.0776 128.84C99.3736 129.008 99.6056 129.24 99.7736 129.536C99.9416 129.832 100.026 130.18 100.026 130.58V130.7C100.026 131.292 99.8416 131.772 99.4736 132.14C99.1136 132.508 98.6376 132.692 98.0456 132.692ZM98.0456 131.612C98.2616 131.612 98.4336 131.54 98.5616 131.396C98.6896 131.252 98.7536 131.016 98.7536 130.688V130.58C98.7536 130.26 98.6896 130.028 98.5616 129.884C98.4336 129.74 98.2616 129.668 98.0456 129.668C97.8296 129.668 97.6576 129.74 97.5296 129.884C97.4016 130.028 97.3376 130.26 97.3376 130.58V130.688C97.3376 131.016 97.4016 131.252 97.5296 131.396C97.6576 131.54 97.8296 131.612 98.0456 131.612ZM97.2056 137.12L102.966 128.72H104.406L98.6456 137.12H97.2056ZM103.566 137.252C102.974 137.252 102.494 137.068 102.126 136.7C101.766 136.332 101.586 135.852 101.586 135.26V135.14C101.586 134.74 101.666 134.392 101.826 134.096C101.994 133.8 102.226 133.568 102.522 133.4C102.826 133.232 103.174 133.148 103.566 133.148C103.958 133.148 104.302 133.232 104.598 133.4C104.894 133.568 105.126 133.8 105.294 134.096C105.462 134.392 105.546 134.74 105.546 135.14V135.26C105.546 135.852 105.362 136.332 104.994 136.7C104.634 137.068 104.158 137.252 103.566 137.252ZM103.566 136.172C103.782 136.172 103.954 136.1 104.082 135.956C104.21 135.812 104.274 135.576 104.274 135.248V135.14C104.274 134.82 104.21 134.588 104.082 134.444C103.954 134.3 103.782 134.228 103.566 134.228C103.35 134.228 103.178 134.3 103.05 134.444C102.922 134.588 102.858 134.82 102.858 135.14V135.248C102.858 135.576 102.922 135.812 103.05 135.956C103.178 136.1 103.35 136.172 103.566 136.172Z" fill="white"/>
</svg>
